<?xml version="1.0" standalone="no"?>
<!DOCTYPE svg PUBLIC "-//W3C//DTD SVG 1.1//EN" "http://www.w3.org/Graphics/SVG/1.1/DTD/svg11.dtd" >
<svg>
<metadata>
Created by FontForge 20090622 at Mon Apr  2 10:07:36 2018
 By deploy user
HTF Knockout   1990-9 The Hoefler Type Foundry, Inc. http://www.typography.com
</metadata>
<defs>
<font id="Knockout-HTF31-JuniorMiddlewt" horiz-adv-x="623" >
  <font-face 
    font-family="Knockout HTF31-JuniorMiddlewt"
    font-weight="500"
    font-stretch="normal"
    units-per-em="1000"
    panose-1="0 0 0 0 0 0 0 0 0 0"
    ascent="800"
    descent="-200"
    x-height="468"
    cap-height="666"
    bbox="-209 -255 966 863"
    underline-thickness="52"
    underline-position="-79"
    unicode-range="U+0020-U+00FF"
  />
<missing-glyph horiz-adv-x="500" 
 />
    <glyph glyph-name=".notdef" horiz-adv-x="500" 
 />
    <glyph glyph-name=".null" horiz-adv-x="0" 
 />
    <glyph glyph-name="nonmarkingreturn" horiz-adv-x="333" 
 />
    <glyph glyph-name="space" unicode=" " horiz-adv-x="224" 
 />
    <glyph glyph-name="exclam" unicode="!" horiz-adv-x="232" 
d="M171 404l-38 -201h-33l-38 201v262h109v-262zM165 0h-98v116h98v-116z" />
    <glyph glyph-name="quotedbl" unicode="&#x22;" horiz-adv-x="354" 
d="M363 666l-98 -218h-75l61 218h112zM195 666l-80 -218h-75l44 218h111z" />
    <glyph glyph-name="numbersign" unicode="#" horiz-adv-x="687" 
d="M663 426h-150l-35 -187h154v-67h-167l-33 -172h-77l33 172h-149l-33 -172h-76l33 172h-138v67h150l36 187h-155v68h167l34 172h76l-32 -172h148l33 172h77l-33 -172h137v-68zM436 426h-149l-35 -187h149z" />
    <glyph glyph-name="dollar" unicode="$" horiz-adv-x="578" 
d="M522 175q0 -74 -48.5 -126t-132.5 -65v-96h-97v96q-88 12 -141 65t-53 128v36h103v-17q0 -58 39.5 -91t100.5 -33q60 0 91.5 29t31.5 72q0 39 -36 67t-87 47.5t-102 42t-87 62.5t-36 97q0 74 46.5 126.5t129.5 65.5v97h97v-96q86 -13 133 -65.5t47 -128.5v-23h-103v7
q0 51 -32 86t-94 35q-55 0 -86 -25.5t-31 -66.5q0 -29 25.5 -52t64.5 -37.5t83.5 -35t83.5 -43t64.5 -63.5t25.5 -95z" />
    <glyph glyph-name="percent" unicode="%" horiz-adv-x="698" 
d="M664 108q0 -59 -34.5 -93t-90.5 -34t-90.5 34.5t-34.5 92.5v97q0 58 35 92.5t90 34.5q56 0 90.5 -34.5t34.5 -92.5v-97zM589 93v127q0 23 -13.5 36.5t-36.5 13.5t-37 -13.5t-14 -36.5v-127q0 -23 14 -37t37 -14t36.5 14t13.5 37zM621 656l-490 -681l-47 35l490 681z
M291 462q0 -59 -34.5 -93t-90.5 -34t-90 34.5t-34 92.5v97q0 58 34.5 92t89.5 34q56 0 90.5 -34t34.5 -92v-97zM216 447v127q0 23 -13.5 37t-36.5 14t-36.5 -14t-13.5 -37v-127q0 -23 13.5 -36.5t36.5 -13.5t36.5 13.5t13.5 36.5z" />
    <glyph glyph-name="ampersand" unicode="&#x26;" horiz-adv-x="702" 
d="M691 102q0 -121 -117 -121q-68 0 -146 64q-83 -64 -186 -64q-89 0 -144 50t-55 125q0 63 40.5 116.5t111.5 90.5q-32 75 -32 134q0 81 48.5 134.5t132.5 53.5q77 0 118.5 -44.5t41.5 -113.5q0 -63 -48 -114t-134 -86q47 -89 110 -160q36 43 61.5 96t31.5 89l85 -16
q-6 -50 -36.5 -111.5t-75.5 -118.5q47 -36 74 -36q16 0 26 10t10 25v47h83v-50zM408 527q0 30 -16.5 50t-47.5 20q-37 0 -59 -27t-22 -71q0 -42 25 -103q62 30 91 64.5t29 66.5zM364 105q-73 76 -132 181q-82 -44 -82 -118q0 -46 31 -71t88 -25q50 0 95 33z" />
    <glyph glyph-name="quotesingle" unicode="'" horiz-adv-x="222" 
d="M223 666l-98 -218h-73l47 218h124z" />
    <glyph glyph-name="parenleft" unicode="(" horiz-adv-x="376" 
d="M396 -161l-27 -34q-132 89 -203 219.5t-71 273.5q0 142 71.5 272.5t202.5 220.5l27 -33q-89 -87 -142.5 -205t-53.5 -255t53 -254.5t143 -204.5z" />
    <glyph glyph-name="parenright" unicode=")" horiz-adv-x="376" 
d="M281 298q0 -143 -71 -273.5t-203 -219.5l-27 34q90 87 143 204.5t53 254.5t-53.5 255t-142.5 205l27 33q132 -89 203 -219.5t71 -273.5z" />
    <glyph glyph-name="asterisk" unicode="*" horiz-adv-x="374" 
d="M332 454l-22 -38q-6 -11 -21 -4q-43 26 -79 62q14 -53 14 -100q0 -17 -14 -17h-44q-14 0 -14 17q0 46 13 99q-41 -41 -79 -62q-13 -9 -21 3l-22 39q-7 13 7 20q39 22 92 38q-50 15 -93 38q-14 7 -7 20l22 39q8 12 21 3q43 -26 79 -61q-14 53 -14 99q0 17 14 17h44
q14 0 14 -17q0 -46 -13 -98q36 35 79 62q15 6 21 -4l22 -38q6 -12 -7 -21q-40 -23 -92 -37q53 -15 92 -38q14 -8 8 -21z" />
    <glyph glyph-name="plus" unicode="+" horiz-adv-x="425" 
d="M376 295h-120v-129h-86v129h-121v83h121v130h86v-130h120v-83z" />
    <glyph glyph-name="comma" unicode="," horiz-adv-x="239" 
d="M169 13q0 -54 -31 -89.5t-94 -35.5v33q33 0 52 21t19 58h-45v117h99v-104z" />
    <glyph glyph-name="hyphen" unicode="-" horiz-adv-x="360" 
d="M315 258h-270v86h270v-86z" />
    <glyph glyph-name="period" unicode="." horiz-adv-x="239" 
d="M169 0h-99v117h99v-117z" />
    <glyph glyph-name="slash" unicode="/" horiz-adv-x="337" 
d="M329 729l-238 -811h-76l238 811h76z" />
    <glyph glyph-name="zero" unicode="0" horiz-adv-x="595" 
d="M541 213q0 -100 -65.5 -166t-177.5 -66t-178 66t-66 166v240q0 100 66 166t178 66t177.5 -66t65.5 -166v-240zM436 209v248q0 57 -36 95.5t-102 38.5t-102 -38.5t-36 -95.5v-248q0 -57 36 -95t102 -38t102 38t36 95z" />
    <glyph glyph-name="one" unicode="1" horiz-adv-x="280" 
d="M194 0h-107v615q27 0 39.5 14.5t12.5 36.5h55v-666z" />
    <glyph glyph-name="two" unicode="2" horiz-adv-x="528" 
d="M490 495q0 -53 -31.5 -98t-78.5 -77.5l-94.5 -63.5t-86 -71.5t-46.5 -86.5h332v-98h-445v44q0 58 19 106t49.5 80t67.5 59.5t74.5 50t68 44.5t49.5 49t19 59q0 45 -30 74t-87 29q-49 0 -76.5 -28.5t-27.5 -81.5v-35h-103v42q0 81 55 137t152 56q105 0 162.5 -55.5
t57.5 -134.5z" />
    <glyph glyph-name="three" unicode="3" horiz-adv-x="527" 
d="M484 167q0 -80 -58.5 -133t-160.5 -53q-93 0 -153 53t-60 133v42h103v-24q0 -114 114 -114q56 0 84 28t28 76v32q0 90 -116 90h-56v83h56q59 0 87.5 25t28.5 65v21q0 48 -29 76t-83 28t-84 -29t-30 -85v-14h-103v32q0 80 60 133t153 53q103 0 161 -52t58 -133v-17
q0 -53 -30 -91.5t-87 -48.5q57 -13 87 -48.5t30 -87.5v-40z" />
    <glyph glyph-name="four" unicode="4" horiz-adv-x="530" 
d="M506 162h-87v-162h-97v162h-301v75l314 429h84v-414h87v-90zM322 252v255l-182 -255h182z" />
    <glyph glyph-name="five" unicode="5" horiz-adv-x="541" 
d="M498 179q0 -88 -62 -143t-166 -55q-93 0 -153 53t-60 133v22h103v-4q0 -114 111 -114q123 0 123 113v78q0 48 -28 74t-81 26q-83 0 -139 -80l-83 21l23 363h405q-5 -53 -24.5 -74t-71.5 -21h-222l-14 -189q56 65 153 65q88 0 137 -47.5t49 -124.5v-96z" />
    <glyph glyph-name="six" unicode="6" horiz-adv-x="559" 
d="M516 187q0 -90 -60 -148t-164 -58q-108 0 -172 64t-64 167v231q0 107 66 174.5t174 67.5q95 0 157.5 -50.5t62.5 -136.5v-16h-103v9q0 46 -33 75t-86 29q-67 0 -101 -38t-34 -107v-108q70 84 168 84q87 0 138 -52t51 -131v-56zM414 175v54q0 52 -30.5 84.5t-87.5 32.5
q-52 0 -87 -27.5t-48 -68.5v-54q2 -54 37.5 -90t92.5 -36q56 0 89.5 29.5t33.5 75.5z" />
    <glyph glyph-name="seven" unicode="7" horiz-adv-x="507" 
d="M497 592q-118 -148 -182.5 -289t-75.5 -303h-113q7 135 79 291t178 280h-348v95h462v-74z" />
    <glyph glyph-name="eight" unicode="8" horiz-adv-x="567" 
d="M514 163q0 -81 -61 -131.5t-169 -50.5t-169.5 50.5t-61.5 131.5v35q0 50 28.5 87t76.5 52q-46 16 -72.5 52.5t-26.5 86.5v26q0 81 59 132t166 51t165.5 -51t58.5 -132v-26q0 -49 -26 -85t-73 -53q48 -14 76.5 -52t28.5 -88v-35zM410 471v23q0 47 -33.5 75t-92.5 28
t-93 -28t-34 -75v-23q0 -39 33.5 -69t93.5 -30t93 30t33 69zM413 173v28q0 39 -34 69t-95 30q-62 0 -96 -30t-34 -69v-28q0 -48 35 -75.5t95 -27.5q59 0 94 27.5t35 75.5z" />
    <glyph glyph-name="nine" unicode="9" horiz-adv-x="570" 
d="M514 220q0 -108 -61 -173.5t-176 -65.5q-95 0 -159 49.5t-64 137.5v20h103v-13q0 -48 33.5 -76.5t88.5 -28.5q131 0 131 142v109q-63 -76 -160 -76q-91 0 -143.5 51.5t-52.5 131.5v49q0 90 60.5 149t164.5 59q111 0 173 -63t62 -169v-233zM409 418v53q0 52 -35.5 88
t-94.5 36t-91 -29.5t-32 -81.5v-40q0 -55 31 -85t91 -30q101 0 131 89z" />
    <glyph glyph-name="colon" unicode=":" horiz-adv-x="239" 
d="M169 328h-99v117h99v-117zM169 0h-99v117h99v-117z" />
    <glyph glyph-name="semicolon" unicode=";" horiz-adv-x="239" 
d="M169 328h-99v117h99v-117zM169 13q0 -54 -31 -89.5t-94 -35.5v33q33 0 52 21t19 58h-45v117h99v-104z" />
    <glyph glyph-name="less" unicode="&#x3c;" horiz-adv-x="525" 
d="M443 70l-388 249v29l388 248v-105l-251 -158l251 -158v-105z" />
    <glyph glyph-name="equal" unicode="=" horiz-adv-x="427" 
d="M378 382h-329v89h329v-89zM378 202h-329v90h329v-90z" />
    <glyph glyph-name="greater" unicode="&#x3e;" horiz-adv-x="525" 
d="M470 318l-388 -248v105l251 158l-251 158v105l388 -249v-29z" />
    <glyph glyph-name="question" unicode="?" horiz-adv-x="480" 
d="M237 595q-50 0 -79 -30.5t-29 -83.5v-15h-101v31q0 79 58.5 133.5t152.5 54.5q104 0 159 -51.5t55 -128.5q0 -46 -20.5 -81.5t-49.5 -58t-58.5 -43t-50 -47.5t-20.5 -61h-84q0 38 13 69.5t32.5 50.5t42.5 38.5l42.5 35.5t32.5 40t13 53q0 94 -109 94zM259 0h-99v116h99
v-116z" />
    <glyph glyph-name="at" unicode="@" horiz-adv-x="762" 
d="M725 385q0 -93 -53.5 -161t-145.5 -68q-39 0 -67.5 24.5t-27.5 60.5q-49 -75 -116 -75q-47 0 -75.5 31.5t-28.5 83.5q0 75 57 146.5t131 71.5q33 0 53 -16.5t25 -45.5l19 55h79l-70 -207q-13 -33 -2.5 -55t43.5 -22q51 0 86.5 48t35.5 128q0 110 -77 180t-197 70
q-129 0 -212 -87t-83 -214q0 -131 82.5 -216t212.5 -85q118 0 200 74l33 -40q-98 -85 -233 -85q-151 0 -251.5 100t-100.5 251q0 148 101 250.5t251 102.5q83 0 149 -28.5t104 -74t58 -96.5t20 -101zM459 391q0 60 -47 60q-50 0 -84 -54.5t-34 -112.5q0 -29 14.5 -45.5
t37.5 -16.5q56 0 85 87z" />
    <glyph glyph-name="A" unicode="A" horiz-adv-x="575" 
d="M566 0h-114l-54 170h-226l-52 -170h-111l222 666h110zM369 259l-86 267l-83 -267h169z" />
    <glyph glyph-name="B" unicode="B" horiz-adv-x="591" 
d="M543 168q0 -79 -49 -123.5t-150 -44.5h-273v666h267q196 0 196 -167v-20q0 -118 -109 -138q60 -10 89 -46.5t29 -90.5v-36zM426 464v30q0 79 -85 79h-159v-197h149q95 0 95 88zM430 170v35q0 88 -95 88h-153v-201h164q84 0 84 78z" />
    <glyph glyph-name="C" unicode="C" horiz-adv-x="591" 
d="M553 435h-109v37q0 55 -33.5 85.5t-94.5 30.5q-74 0 -113 -40.5t-39 -107.5v-216q0 -65 40 -105.5t114 -40.5q60 0 92 31t32 86v37h109v-46q0 -87 -64 -146t-173 -59q-125 0 -193 71.5t-68 178.5v202q0 107 69 179.5t194 72.5q107 0 172 -58.5t65 -145.5v-46z" />
    <glyph glyph-name="D" unicode="D" 
d="M570 228q0 -99 -65.5 -163.5t-185.5 -64.5h-248v666h248q120 0 185.5 -64.5t65.5 -163.5v-210zM460 236v193q0 65 -38 102t-110 37h-131v-470h131q72 0 110 37t38 101z" />
    <glyph glyph-name="E" unicode="E" horiz-adv-x="532" 
d="M492 0h-421v666h421v-98h-311v-174h230v-92h-230v-204h311v-98z" />
    <glyph glyph-name="F" unicode="F" horiz-adv-x="512" 
d="M487 569h-306v-192h232v-94h-232v-283h-110v666h416v-97z" />
    <glyph glyph-name="G" unicode="G" horiz-adv-x="613" 
d="M451 472q0 54 -36.5 85t-97.5 31q-74 0 -113.5 -42t-39.5 -104v-219q0 -62 40 -103.5t111 -41.5q63 0 100 37t37 91v51h-131v92h239v-349h-61l-18 67q-57 -86 -180 -86q-119 0 -183.5 70.5t-64.5 177.5v205q0 107 69.5 179t194.5 72q108 0 175.5 -59t67.5 -145v-26h-109
v17z" />
    <glyph glyph-name="H" unicode="H" horiz-adv-x="647" 
d="M577 0h-111v289h-285v-289h-110v666h110v-282h285v282h111v-666z" />
    <glyph glyph-name="I" unicode="I" horiz-adv-x="252" 
d="M181 0h-110v666h110v-666z" />
    <glyph glyph-name="J" unicode="J" horiz-adv-x="539" 
d="M472 199q0 -99 -53.5 -158.5t-162.5 -59.5q-107 0 -165.5 54.5t-58.5 151.5v57h109v-48q0 -118 113 -118q107 0 107 118v470h111v-467z" />
    <glyph glyph-name="K" unicode="K" horiz-adv-x="592" 
d="M575 0h-128l-192 295l-74 -82v-213h-110v666h110v-320l266 320h127l-248 -292q10 -9 72.5 -102.5l119.5 -182.5z" />
    <glyph glyph-name="L" unicode="L" horiz-adv-x="518" 
d="M498 0h-427v666h110v-568h317v-98z" />
    <glyph glyph-name="M" unicode="M" horiz-adv-x="801" 
d="M730 0h-102v521l-33 -108l-149 -413h-94l-147 413l-33 108v-521h-101v666h153l146 -428l32 -107l31 107l144 428h153v-666z" />
    <glyph glyph-name="N" unicode="N" horiz-adv-x="643" 
d="M572 0h-82l-252 362l-61 95v-457h-106v666h91l245 -367l59 -94v461h106v-666z" />
    <glyph glyph-name="O" unicode="O" 
d="M570 230q0 -107 -67.5 -178t-190.5 -71t-191 71t-68 178v206q0 108 68 178.5t191 70.5t190.5 -70.5t67.5 -178.5v-206zM459 226v214q0 66 -38 107t-109 41t-109 -41t-38 -107v-214q0 -65 38 -106.5t109 -41.5t109 41.5t38 106.5z" />
    <glyph glyph-name="P" unicode="P" horiz-adv-x="572" 
d="M536 436q0 -83 -50.5 -131t-156.5 -48h-148v-257h-110v666h258q106 0 156.5 -49t50.5 -132v-49zM424 435v52q0 84 -90 84h-153v-222h155q88 0 88 86z" />
    <glyph glyph-name="Q" unicode="Q" horiz-adv-x="628" 
d="M524 77q33 -26 79 -26v-68q-27 -13 -63 -13q-48 0 -94 41q-57 -30 -134 -30q-123 0 -191 71t-68 178v206q0 108 68 178.5t191 70.5t190.5 -70.5t67.5 -178.5v-206q0 -89 -46 -153zM442 152q17 31 17 74v214q0 66 -38 107t-109 41t-109 -41t-38 -107v-214q0 -65 38 -106.5
t109 -41.5q34 0 60 10l-82 80l74 61z" />
    <glyph glyph-name="R" unicode="R" horiz-adv-x="598" 
d="M572 -6h-44q-55 0 -78 23.5t-24 78.5l-1 98q-1 44 -23.5 66.5t-75.5 22.5h-145v-283h-110v666h258q207 0 207 -169v-33q0 -58 -27 -92.5t-91 -46.5q62 -6 90 -42.5t28 -88.5l1 -90q0 -37 35 -48v-62zM424 453v41q0 79 -90 79h-153v-209h147q96 0 96 89z" />
    <glyph glyph-name="S" unicode="S" horiz-adv-x="567" 
d="M525 189q0 -91 -63 -149.5t-173 -58.5q-117 0 -184 54t-67 141v36h109v-15q0 -61 41 -91t108 -30q57 0 87 28t30 73q0 40 -37.5 66.5t-91.5 43t-108 36.5t-91.5 61t-37.5 103q0 83 64 140.5t171 57.5q110 0 177.5 -56t67.5 -139v-29h-109v15q0 50 -36.5 82t-100.5 32
q-57 0 -90 -26.5t-33 -67.5q0 -33 27 -56.5t68 -36t88.5 -30t88.5 -37t68 -57.5t27 -90z" />
    <glyph glyph-name="T" unicode="T" horiz-adv-x="547" 
d="M523 568h-194v-568h-111v568h-194v98h499v-98z" />
    <glyph glyph-name="U" unicode="U" horiz-adv-x="634" 
d="M567 202q0 -101 -67 -161t-184 -60q-116 0 -182.5 59.5t-66.5 161.5v464h112v-458q0 -63 35 -97.5t104 -34.5q138 0 138 132v458h111v-464z" />
    <glyph glyph-name="V" unicode="V" horiz-adv-x="590" 
d="M581 666l-236 -666h-100l-232 666h118l168 -521l166 521h116z" />
    <glyph glyph-name="W" unicode="W" horiz-adv-x="852" 
d="M844 666l-179 -666h-106l-130 482l-135 -482h-106l-175 666h116l115 -504l138 504h99l135 -504l116 504h112z" />
    <glyph glyph-name="X" unicode="X" horiz-adv-x="586" 
d="M563 666l-203 -326l211 -340h-124l-152 257l-151 -257h-119l211 339l-204 327h124l144 -248l143 248h120z" />
    <glyph glyph-name="Y" unicode="Y" horiz-adv-x="555" 
d="M558 666l-222 -397v-269h-111v269l-226 397h124l161 -306l157 306h117z" />
    <glyph glyph-name="Z" unicode="Z" horiz-adv-x="567" 
d="M532 623l-339 -525h331v-98h-488v43l342 525h-325v98h479v-43z" />
    <glyph glyph-name="bracketleft" unicode="[" horiz-adv-x="357" 
d="M357 -178h-241v953h241v-82h-149v-789h149v-82z" />
    <glyph glyph-name="backslash" unicode="\" horiz-adv-x="335" 
d="M325 -81h-76l-238 810h76z" />
    <glyph glyph-name="bracketright" unicode="]" horiz-adv-x="357" 
d="M242 -178h-242v82h150v789h-150v82h242v-953z" />
    <glyph glyph-name="asciicircum" unicode="^" horiz-adv-x="353" 
d="M332 536q-26 -8 -52 -8q-37 0 -65.5 25t-39.5 65q-11 -40 -40 -65t-67 -25q-21 0 -45 8v29q76 0 106 101h96q30 -101 107 -101v-29z" />
    <glyph glyph-name="underscore" unicode="_" horiz-adv-x="451" 
d="M448 -83h-444v83h444v-83z" />
    <glyph glyph-name="grave" unicode="`" horiz-adv-x="228" 
d="M185 548h-63l-93 145h109z" />
    <glyph glyph-name="a" unicode="a" horiz-adv-x="488" 
d="M462 -8h-34q-36 0 -58 17t-21 56q-59 -73 -159 -73q-68 0 -109.5 35.5t-41.5 95.5v5q0 43 23.5 74t64.5 46.5t90.5 21.5t107.5 2v47q0 79 -82 79q-92 0 -92 -70v-2h-89v5q0 63 47 105t131 42q93 0 137 -47.5t44 -129.5v-204q0 -17 9 -24.5t32 -7.5v-73zM325 152v59
q-189 12 -189 -80v-3q0 -25 19.5 -42t52.5 -17q44 0 80.5 24t36.5 59z" />
    <glyph glyph-name="b" unicode="b" horiz-adv-x="511" 
d="M464 169q0 -78 -47 -127.5t-122 -49.5q-50 0 -91.5 22t-58.5 66l-20 -80h-61v666h100v-270q49 82 148 82q70 0 111 -49.5t41 -125.5v-134zM365 178v109q0 113 -97 113q-46 0 -74.5 -30t-28.5 -80v-118q0 -50 30.5 -78t71.5 -28q98 0 98 112z" />
    <glyph glyph-name="c" unicode="c" horiz-adv-x="469" 
d="M432 163q0 -81 -51.5 -126t-133.5 -45q-90 0 -144.5 52t-54.5 139v101q0 87 55.5 140.5t144.5 53.5q83 0 133.5 -45t50.5 -126v-3h-89v12q0 37 -26 60t-68 23q-47 0 -75 -28.5t-28 -78.5v-113q0 -52 28 -80t75 -28q40 0 67 23t27 61v12h89v-4z" />
    <glyph glyph-name="d" unicode="d" horiz-adv-x="506" 
d="M448 0h-71l-9 80q-19 -44 -59.5 -66t-89.5 -22q-76 0 -123.5 49t-47.5 127v127q0 79 47.5 131t116.5 52q86 0 136 -64v252h100v-666zM347 173v119q0 49 -27.5 79t-74.5 30t-72.5 -28.5t-25.5 -83.5v-111q0 -55 26 -83t72 -28q43 0 72.5 28t29.5 78z" />
    <glyph glyph-name="e" unicode="e" horiz-adv-x="476" 
d="M435 153q0 -74 -54 -117.5t-135 -43.5q-90 0 -144 51t-54 137v107q0 85 52.5 138t143.5 53t141 -52.5t50 -139.5v-58h-289v-64q0 -42 28.5 -68t77.5 -26q44 0 69 21.5t25 53.5v10h89v-2zM343 280v30q0 39 -26.5 64.5t-71.5 25.5q-46 0 -72.5 -25t-26.5 -65v-30h197z" />
    <glyph glyph-name="f" unicode="f" horiz-adv-x="309" 
d="M293 387h-91v-387h-102v387h-73v77h73v31q0 81 40.5 127.5t119.5 46.5h40v-79h-29q-73 0 -73 -83v-43h95v-77z" />
    <glyph glyph-name="g" unicode="g" horiz-adv-x="482" 
d="M475 479q0 -35 -17 -50t-40 -15q-25 0 -38 7q46 -36 46 -91v-7q0 -64 -50 -103.5t-134 -39.5q-37 0 -58 7q-26 0 -41.5 -12.5t-15.5 -27.5q0 -20 31.5 -30.5t112.5 -10.5q195 0 195 -114v-8q0 -59 -60.5 -103t-164.5 -44q-92 0 -152.5 31.5t-60.5 83.5v5q0 32 26 56.5
t79 34.5q-89 18 -89 75q0 29 26.5 53.5t64.5 30.5q-75 34 -75 119v3q0 63 53 106t129 43q34 0 94 -16q36 -3 49.5 13.5t13.5 49.5h71q5 -26 5 -46zM334 327v3q0 33 -24 56t-68 23q-43 0 -67.5 -23t-24.5 -56v-3q0 -33 24.5 -56t67.5 -23q44 0 68 23t24 56zM371 -23v4
q0 26 -25 39.5t-88 13.5q-70 0 -103.5 -16.5t-33.5 -41.5v-5q0 -26 30.5 -42t91.5 -16q62 0 95 18.5t33 45.5z" />
    <glyph glyph-name="h" unicode="h" horiz-adv-x="516" 
d="M457 0h-102v316q0 41 -20 63.5t-57 22.5q-47 0 -80 -48t-33 -95v-259h-101v666h101v-297q23 54 65 81.5t90 27.5q63 0 100 -43.5t37 -113.5v-321z" />
    <glyph glyph-name="i" unicode="i" horiz-adv-x="230" 
d="M163 549h-96v95h96v-95zM166 0h-102v468h102v-468z" />
    <glyph glyph-name="j" unicode="j" horiz-adv-x="230" 
d="M163 549h-96v95h96v-95zM166 -4q0 -74 -34.5 -113.5t-114.5 -39.5h-41v71h18q42 0 56 15t14 49v490h102v-472z" />
    <glyph glyph-name="k" unicode="k" horiz-adv-x="479" 
d="M466 0h-106l-122 209l-76 -92v-117h-100v666h100v-432l182 234h106l-151 -193z" />
    <glyph glyph-name="l" unicode="l" horiz-adv-x="228" 
d="M165 0h-101v666h101v-666z" />
    <glyph glyph-name="m" unicode="m" horiz-adv-x="733" 
d="M673 0h-102v325q0 77 -59 77q-45 0 -68.5 -48.5t-23.5 -96.5v-257h-102v325q0 77 -59 77q-45 0 -69 -48.5t-24 -96.5v-257h-102v468h87l4 -105q50 115 147 115q43 0 72 -27.5t40 -74.5q49 102 141 102q57 0 87.5 -40t30.5 -108v-330z" />
    <glyph glyph-name="n" unicode="n" horiz-adv-x="522" 
d="M462 0h-102v316q0 41 -20.5 63.5t-57.5 22.5q-47 0 -81.5 -49.5t-34.5 -95.5v-257h-102v468h86l5 -121q56 131 162 131q69 0 107 -43t38 -114v-321z" />
    <glyph glyph-name="o" unicode="o" horiz-adv-x="495" 
d="M447 183q0 -89 -55 -140t-144 -51q-90 0 -145 51t-55 140v102q0 89 55 141t145 52q89 0 144 -52t55 -141v-102zM348 174v122q0 48 -26.5 76t-73.5 28q-48 0 -74.5 -28t-26.5 -76v-122q0 -49 26.5 -76.5t74.5 -27.5t74 28t26 76z" />
    <glyph glyph-name="p" unicode="p" horiz-adv-x="512" 
d="M464 161q0 -71 -46.5 -120t-110.5 -49q-91 0 -143 63v-209h-100v622h71l9 -80q19 44 60.5 67t90.5 23q76 0 122.5 -49.5t46.5 -128.5v-139zM364 182v110q0 54 -25.5 82t-72.5 28q-43 0 -72 -28.5t-29 -80.5v-116q0 -49 28.5 -78t72.5 -29q98 0 98 112z" />
    <glyph glyph-name="q" unicode="q" horiz-adv-x="509" 
d="M448 -154h-100v222q-48 -76 -148 -76q-63 0 -107.5 48.5t-44.5 119.5v140q0 78 48.5 128t122.5 50q112 0 149 -90l16 80h64v-622zM347 177v117q0 50 -29 79t-73 29q-47 0 -72.5 -28t-25.5 -83v-108q0 -55 26 -84t72 -29t74 29t28 78z" />
    <glyph glyph-name="r" unicode="r" horiz-adv-x="341" 
d="M325 471v-95q-81 13 -120 -8t-39 -63v-305h-102v468h86l6 -102q24 69 63 92t106 13z" />
    <glyph glyph-name="s" unicode="s" horiz-adv-x="447" 
d="M411 134q0 -57 -48.5 -99.5t-135.5 -42.5q-85 0 -138.5 42.5t-53.5 108.5v16h89v-7q0 -43 29 -63.5t76 -20.5q90 0 90 61q0 29 -28 46t-67.5 26t-79.5 21t-68 41.5t-28 76.5q0 55 49.5 96.5t129.5 41.5q82 0 131 -40.5t49 -106.5v-9h-89v5q0 32 -24 52.5t-67 20.5
q-40 0 -63.5 -15t-23.5 -39q0 -27 28 -42t68 -24t79.5 -22t67.5 -44t28 -80z" />
    <glyph glyph-name="t" unicode="t" horiz-adv-x="315" 
d="M288 387h-88v-236q0 -92 42 -151h-111q-33 51 -33 151v236h-72v77h76v85l98 33v-118h88v-77z" />
    <glyph glyph-name="u" unicode="u" horiz-adv-x="521" 
d="M461 0h-86l-5 107q-50 -115 -158 -115q-72 0 -110.5 42t-38.5 114v320h102v-314q0 -41 21.5 -63.5t59.5 -22.5q46 0 79.5 47t33.5 93v260h102v-468z" />
    <glyph glyph-name="v" unicode="v" horiz-adv-x="453" 
d="M443 468l-171 -468h-92l-170 468h105l79 -252l34 -111l34 111l78 252h103z" />
    <glyph glyph-name="w" unicode="w" horiz-adv-x="669" 
d="M658 468l-145 -468h-85l-70 229l-24 93l-25 -93l-68 -229h-86l-145 468h102l65 -265l21 -95l22 95l73 265h91l65 -265l22 -95l21 95l73 265h93z" />
    <glyph glyph-name="x" unicode="x" horiz-adv-x="447" 
d="M439 0h-106l-106 167l-107 -167h-105l162 232l-162 236h107l106 -166l106 166h105l-161 -232z" />
    <glyph glyph-name="y" unicode="y" horiz-adv-x="453" 
d="M442 468l-162 -461q-19 -48 -32 -73t-34 -49t-48.5 -33t-68.5 -9h-41v73h34q38 0 54.5 12t27.5 41l8 24l-170 475h103l80 -252l34 -110l33 110l79 252h103z" />
    <glyph glyph-name="z" unicode="z" horiz-adv-x="434" 
d="M402 410l-251 -332h244v-78h-362v58l253 332h-243v78h359v-58z" />
    <glyph glyph-name="braceleft" unicode="{" horiz-adv-x="385" 
d="M324 -178h-49q-81 0 -123 42.5t-42 106.5q0 47 22 94t44 84t22 60q0 30 -16.5 43t-58.5 13h-37v68h37q42 0 58.5 12t16.5 41q0 24 -22 61.5t-44 84t-22 93.5q0 65 42 107.5t123 42.5h49v-84h-45q-70 0 -70 -60q0 -44 35 -119.5t35 -102.5q0 -90 -100 -111
q100 -21 100 -111q0 -27 -35 -102t-35 -119q0 -61 70 -61h45v-83z" />
    <glyph glyph-name="bar" unicode="|" horiz-adv-x="194" 
d="M134 -81h-74v810h74v-810z" />
    <glyph glyph-name="braceright" unicode="}" horiz-adv-x="385" 
d="M299 265h-36q-43 0 -59.5 -13t-16.5 -43q0 -23 22 -60t44 -84t22 -94q0 -64 -42 -106.5t-123 -42.5h-49v83h46q70 0 70 61q0 44 -35.5 119t-35.5 102q0 90 100 111q-100 21 -100 111q0 27 35.5 102.5t35.5 119.5q0 60 -70 60h-46v84h49q81 0 123 -42.5t42 -107.5
q0 -47 -22 -93.5t-44 -84t-22 -61.5q0 -29 16.5 -41t59.5 -12h36v-68z" />
    <glyph glyph-name="asciitilde" unicode="~" horiz-adv-x="364" 
d="M344 353q0 -39 -22 -62t-64 -23q-32 0 -85.5 30.5t-66.5 30.5q-22 0 -22 -28v-34h-48q-15 23 -15 45q0 40 21.5 63t63.5 23q32 0 86 -30.5t67 -30.5q23 0 23 28v34h48q14 -23 14 -46z" />
    <glyph glyph-name="quotesinglbase" horiz-adv-x="209" 
d="M154 13q0 -54 -31 -89.5t-94 -35.5v33q33 0 52 21t19 58h-45v117h99v-104z" />
    <glyph glyph-name="florin" horiz-adv-x="400" 
d="M253 385h108v-84h-108v-142q0 -178 -154 -178h-43v90h21q44 0 59 16t15 56v158h-102v84h102v104q0 84 40 132t118 48h42v-90h-20q-45 0 -61.5 -17t-16.5 -55v-122z" />
    <glyph glyph-name="quotedblbase" horiz-adv-x="357" 
d="M304 13q0 -54 -31 -89.5t-94 -35.5v33q33 0 52 21t19 58h-45v117h99v-104zM154 13q0 -54 -31 -89.5t-94 -35.5v33q33 0 52 21t19 58h-45v117h99v-104z" />
    <glyph glyph-name="ellipsis" unicode="&#x85;" horiz-adv-x="658" 
d="M587 0h-99v117h99v-117zM378 0h-99v117h99v-117zM169 0h-99v117h99v-117z" />
    <glyph glyph-name="dagger" horiz-adv-x="453" 
d="M425 412q0 -13 -16 -13q-105 0 -154 13q14 -52 14 -171q0 -207 -11 -297q0 -16 -13 -16h-36q-14 0 -14 16q-10 95 -10 297q0 118 13 171q-48 -13 -153 -13q-16 0 -16 13v57q0 13 16 13q101 0 153 -13q-13 48 -13 181q0 16 13 16h57q14 0 14 -16q0 -128 -13 -181
q51 13 153 13q16 0 16 -13v-57z" />
    <glyph glyph-name="daggerdbl" horiz-adv-x="453" 
d="M425 125q0 -13 -16 -13q-102 0 -153 13q13 -55 13 -181q0 -16 -14 -16h-57q-13 0 -13 16q0 132 13 181q-52 -13 -153 -13q-16 0 -16 13v57q0 13 16 13q100 0 153 -13q-13 53 -13 115t13 115q-48 -13 -153 -13q-16 0 -16 13v57q0 13 16 13q101 0 153 -13q-13 48 -13 181
q0 16 13 16h57q14 0 14 -16q0 -128 -13 -181q51 13 153 13q16 0 16 -13v-57q0 -13 -16 -13q-105 0 -154 13q14 -52 14 -115t-14 -115q55 13 154 13q16 0 16 -13v-57z" />
    <glyph glyph-name="circumflex" horiz-adv-x="353" 
d="M332 559q-26 -8 -52 -8q-37 0 -65.5 25t-39.5 65q-11 -40 -40 -65t-67 -25q-21 0 -45 8v29q76 0 106 101h96q30 -101 107 -101v-29z" />
    <glyph glyph-name="perthousand" horiz-adv-x="997" 
d="M966 108q0 -58 -34 -92.5t-90 -34.5t-91 34.5t-35 92.5v97q0 58 35 92.5t91 34.5q55 0 89.5 -34.5t34.5 -92.5v-97zM892 93v127q0 23 -14 36.5t-36 13.5q-23 0 -37.5 -13.5t-14.5 -36.5v-127q0 -23 14.5 -37t37.5 -14q22 0 36 14t14 37zM664 108q0 -59 -34.5 -93
t-90.5 -34t-90.5 34.5t-34.5 92.5v97q0 58 35 92.5t90 34.5q56 0 90.5 -34.5t34.5 -92.5v-97zM589 93v127q0 23 -13.5 36.5t-36.5 13.5t-37 -13.5t-14 -36.5v-127q0 -23 14 -37t37 -14t36.5 14t13.5 37zM621 656l-490 -681l-47 35l490 681zM291 462q0 -59 -34.5 -93
t-90.5 -34t-90 34.5t-34 92.5v97q0 58 34.5 92t89.5 34q56 0 90.5 -34t34.5 -92v-97zM216 447v127q0 23 -13.5 37t-36.5 14t-36.5 -14t-13.5 -37v-127q0 -23 13.5 -36.5t36.5 -13.5t36.5 13.5t13.5 36.5z" />
    <glyph glyph-name="Scaron" horiz-adv-x="567" 
 />
    <glyph glyph-name="guilsinglleft" horiz-adv-x="297" 
d="M252 0h-56q-15 54 -59.5 101.5t-102.5 61.5v73q58 14 102.5 61.5t59.5 101.5h56q0 -58 -32 -114t-86 -86q54 -30 86 -85.5t32 -113.5z" />
    <glyph glyph-name="OE" horiz-adv-x="897" 
d="M858 0h-537q-126 0 -197 67.5t-71 173.5v183q0 107 71 174.5t197 67.5h537v-98h-311v-174h230v-92h-230v-204h311v-98zM437 96v473h-112q-78 0 -119.5 -37.5t-41.5 -109.5v-176q0 -72 41.5 -111t119.5 -39h112z" />
    <glyph glyph-name="Zcaron" horiz-adv-x="567" 
 />
    <glyph glyph-name="quoteleft" horiz-adv-x="202" 
d="M147 440h-99v104q0 55 31 90.5t94 35.5v-33q-33 0 -51.5 -21t-18.5 -59h44v-117z" />
    <glyph glyph-name="quoteright" horiz-adv-x="202" 
d="M153 563q0 -55 -30.5 -90.5t-94.5 -35.5v32q33 0 52 21.5t19 58.5h-45v117h99v-103z" />
    <glyph glyph-name="quotedblleft" horiz-adv-x="352" 
d="M297 440h-99v104q0 55 31 90.5t94 35.5v-33q-33 0 -51.5 -21t-18.5 -59h44v-117zM147 440h-99v104q0 55 31 90.5t94 35.5v-33q-33 0 -51.5 -21t-18.5 -59h44v-117z" />
    <glyph glyph-name="quotedblright" horiz-adv-x="352" 
d="M303 563q0 -55 -30.5 -90.5t-94.5 -35.5v32q33 0 52 21.5t19 58.5h-45v117h99v-103zM153 563q0 -55 -30.5 -90.5t-94.5 -35.5v32q33 0 52 21.5t19 58.5h-45v117h99v-103z" />
    <glyph glyph-name="bullet" horiz-adv-x="370" 
d="M325 333q0 -64 -39.5 -103t-100.5 -39t-100.5 39t-39.5 103t39.5 103t100.5 39t100.5 -39t39.5 -103z" />
    <glyph glyph-name="endash" horiz-adv-x="558" 
d="M489 258h-419v83h419v-83z" />
    <glyph glyph-name="emdash" horiz-adv-x="845" 
d="M764 258h-694v83h694v-83z" />
    <glyph glyph-name="tilde" horiz-adv-x="364" 
d="M344 647q0 -39 -22 -62t-64 -23q-32 0 -85.5 30.5t-66.5 30.5q-22 0 -22 -28v-34h-48q-15 22 -15 45q0 39 21.5 62t63.5 23q32 0 86 -30.5t67 -30.5q23 0 23 28v34h48q14 -23 14 -45z" />
    <glyph glyph-name="trademark" horiz-adv-x="711" 
d="M657 362h-59v238l-22 -79l-53 -159h-54l-52 159l-22 79v-238h-57v304h86l54 -166l19 -74l21 74l52 166h87v-304zM282 612h-92v-250h-64v250h-93v54h249v-54z" />
    <glyph glyph-name="scaron" horiz-adv-x="447" 
 />
    <glyph glyph-name="guilsinglright" horiz-adv-x="297" 
d="M264 163q-58 -14 -102 -61.5t-59 -101.5h-57q0 58 32 113.5t86 85.5q-54 30 -86 86t-32 114h57q15 -54 59 -101.5t102 -61.5v-73z" />
    <glyph glyph-name="oe" horiz-adv-x="776" 
d="M643 281v30q0 38 -27 64t-72 26t-71.5 -25.5t-26.5 -64.5v-30h197zM348 169v132q0 44 -27 72t-74 28t-73.5 -27.5t-26.5 -72.5v-132q0 -45 26.5 -72.5t73.5 -27.5t74 28t27 72zM646 145v10h89v-2q0 -74 -54 -117.5t-135 -43.5q-46 0 -86 20t-64 56q-51 -76 -157 -76
q-82 0 -137 52t-55 137v108q0 84 55.5 136.5t136.5 52.5q107 0 158 -76q50 77 155 77q83 0 133 -53.5t50 -139.5v-58h-290v-63q0 -43 28.5 -69t77.5 -26q44 0 69.5 21.5t25.5 53.5z" />
    <glyph glyph-name="zcaron" horiz-adv-x="434" 
 />
    <glyph glyph-name="Ydieresis" horiz-adv-x="555" 
d="M558 666l-222 -397v-269h-111v269l-226 397h124l161 -306l157 306h117zM406 737h-92v93h92v-93zM243 737h-92v93h92v-93z" />
    <glyph glyph-name="exclamdown" unicode="&#xa1;" horiz-adv-x="232" 
d="M165 351h-99v117h99v-117zM171 -198h-110v263l39 201h32l39 -201v-263z" />
    <glyph glyph-name="cent" unicode="&#xa2;" horiz-adv-x="474" 
d="M436 266v-4q0 -68 -38 -112.5t-101 -56.5v-96h-88v95q-71 12 -114 59t-43 117v125q0 70 44 118.5t113 60.5v98h88v-99q64 -12 101.5 -55t37.5 -112v-3h-89v12q0 37 -26 60t-68 23q-45 0 -71 -26t-26 -67v-140q0 -42 26 -67.5t71 -25.5q40 0 67 23t27 61v12h89z" />
    <glyph glyph-name="sterling" unicode="&#xa3;" horiz-adv-x="630" 
d="M595 201v-76q0 -144 -153 -144q-105 0 -191 60q-57 -60 -130 -60q-52 0 -83.5 28.5t-31.5 71.5q0 48 33.5 78.5t95.5 30.5q46 0 92 -31q24 26 24 62q0 42 -24 72h-164v85h114q-36 63 -36 113q0 79 59.5 136.5t164.5 57.5q101 0 155.5 -56t54.5 -131v-36h-103v25
q0 45 -30 76.5t-82 31.5q-51 0 -82 -28.5t-31 -79.5q0 -50 44 -109h194v-85h-149q14 -39 14 -72q0 -52 -45 -108q66 -39 124 -39q38 0 50.5 16t12.5 49v62h103zM191 90q-36 27 -63 27q-38 0 -38 -30q0 -28 39 -28q40 0 62 31z" />
    <glyph glyph-name="currency" unicode="&#xa4;" horiz-adv-x="590" 
d="M159 378h319v-90h-319v-71q0 -62 40 -101t116 -39q62 0 94.5 31t32.5 87v20h106v-29q0 -87 -64.5 -146t-172.5 -59q-124 0 -191 70t-67 172v218q0 101 68 172.5t191 71.5q108 0 173 -58.5t65 -145.5v-29h-106v20q0 55 -33.5 86t-97.5 31q-74 0 -114 -40t-40 -101v-70z
" />
    <glyph glyph-name="yen" unicode="&#xa5;" horiz-adv-x="575" 
d="M340 278v-68h177v-88h-177v-122h-106v122h-180v88h180v68h-180v87h141l-176 301h120l151 -283l146 283h118l-175 -301h138v-87h-177z" />
    <glyph glyph-name="section" unicode="&#xa7;" horiz-adv-x="570" 
d="M427 223q0 34 -42.5 61.5t-155.5 72.5q-31 -7 -50.5 -26.5t-19.5 -43.5q0 -33 36.5 -55t163.5 -76q31 6 49.5 24.5t18.5 42.5zM289 -84q123 0 123 72q0 31 -36.5 55.5t-88.5 42.5t-104 39t-88.5 57t-36.5 84q0 38 25.5 71t66.5 53q-82 45 -82 123q0 72 57 122t161 50
q105 0 163 -53t58 -124v-18h-103v14q0 36 -32 64.5t-86 28.5q-56 0 -84 -21.5t-28 -54.5q0 -28 36 -51.5t87.5 -43t103 -42t87.5 -59.5t36 -84q0 -85 -89 -124q83 -48 83 -122q0 -70 -62 -118t-168 -48q-111 0 -173.5 50t-62.5 137v22h103v-19q0 -48 36 -75.5t98 -27.5z" />
    <glyph glyph-name="dieresis" unicode="&#xa8;" horiz-adv-x="309" 
d="M282 573h-92v93h92v-93zM119 573h-92v93h92v-93z" />
    <glyph glyph-name="copyright" unicode="&#xa9;" horiz-adv-x="773" 
d="M738 333q0 -147 -100.5 -249.5t-251.5 -102.5q-149 0 -250 102.5t-101 249.5t101 249.5t250 102.5q151 0 251.5 -102.5t100.5 -249.5zM683 333q0 127 -83.5 214.5t-213.5 87.5q-129 0 -212 -87.5t-83 -214.5t83 -214.5t212 -87.5q130 0 213.5 87.5t83.5 214.5zM449 281v6
h65v-11q0 -49 -34 -79t-87 -30q-58 0 -93.5 32.5t-35.5 82.5v102q0 50 35.5 82.5t93.5 32.5q54 0 87 -30t33 -79v-10h-65v5q0 61 -54 61q-30 0 -47 -17.5t-17 -46.5v-99q0 -63 65 -63q54 0 54 61z" />
    <glyph glyph-name="ordfeminine" unicode="&#xaa;" horiz-adv-x="398" 
d="M368 310h-31q-63 0 -63 56q-42 -56 -119 -56q-51 0 -82 26.5t-31 71.5v4q0 62 60.5 88.5t151.5 20.5v41q0 54 -65 54q-57 0 -57 -59v-1h-71v5q0 51 35.5 84t97.5 33q139 0 139 -133v-155q0 -13 6.5 -17.5t28.5 -4.5v-58zM254 432v45q-134 4 -134 -62v-2q0 -19 13.5 -31
t38.5 -12q32 0 57 17.5t25 44.5z" />
    <glyph glyph-name="guillemotleft" unicode="&#xab;" horiz-adv-x="507" 
d="M462 0h-56q-15 54 -59.5 101.5t-102.5 61.5v73q58 14 102.5 61.5t59.5 101.5h56q0 -58 -32 -114t-86 -86q54 -30 86 -85.5t32 -113.5zM252 0h-56q-15 54 -59.5 101.5t-102.5 61.5v73q58 14 102.5 61.5t59.5 101.5h56q0 -58 -32 -114t-86 -86q54 -30 86 -85.5t32 -113.5z
" />
    <glyph glyph-name="logicalnot" unicode="&#xac;" horiz-adv-x="438" 
d="M385 233l-62 -61l-105 106l-104 -106l-61 60l106 104l-106 106l62 60l105 -105l104 105l61 -59l-106 -105z" />
    <glyph glyph-name="registered" unicode="&#xae;" horiz-adv-x="773" 
d="M738 333q0 -147 -100.5 -249.5t-251.5 -102.5q-149 0 -250 102.5t-101 249.5t101 249.5t250 102.5q151 0 251.5 -102.5t100.5 -249.5zM683 333q0 127 -83.5 214.5t-213.5 87.5q-129 0 -212 -87.5t-83 -214.5t83 -214.5t212 -87.5q130 0 213.5 87.5t83.5 214.5zM532 175
h-28q-30 0 -42.5 12t-12.5 40v36q0 44 -44 44h-63v-129h-65v313h133q103 0 103 -87v-4q0 -59 -57 -70q28 -4 43 -23t15 -44v-31q0 -18 18 -22v-35zM448 393v8q0 39 -41 39h-65v-90h60q46 0 46 43z" />
    <glyph glyph-name="macron" unicode="&#xaf;" horiz-adv-x="330" 
d="M309 582h-288v68h288v-68z" />
    <glyph glyph-name="degree" unicode="&#xb0;" horiz-adv-x="362" 
d="M328 543q0 -58 -41.5 -100.5t-105.5 -42.5t-105.5 42.5t-41.5 100.5q0 57 42 99.5t105 42.5t105 -42.5t42 -99.5zM252 543q0 34 -19 55.5t-52 21.5t-52 -21.5t-19 -55.5q0 -35 19 -57t52 -22t52 22t19 57z" />
    <glyph glyph-name="plusminus" unicode="&#xb1;" horiz-adv-x="515" 
d="M487 0h-459v478h459v-478zM436 49v380h-357v-380h357z" />
    <glyph glyph-name="acute" unicode="&#xb4;" horiz-adv-x="228" 
d="M211 693l-92 -145h-63l48 145h107z" />
    <glyph glyph-name="paragraph" unicode="&#xb6;" horiz-adv-x="690" 
d="M620 -161h-85v745h-80v-745h-85v333h-50q-123 0 -199 66t-76 173v14q0 108 76.5 174.5t198.5 66.5h300v-827zM370 264v320h-32q-55 0 -84 -27.5t-29 -78.5v-107q0 -51 29 -79t84 -28h32z" />
    <glyph glyph-name="periodcentered" unicode="&#xb7;" horiz-adv-x="209" 
d="M154 274h-99v117h99v-117z" />
    <glyph glyph-name="cedilla" unicode="&#xb8;" horiz-adv-x="251" 
d="M239 -160q0 -42 -29.5 -68.5t-79.5 -26.5q-29 0 -51 11v36h33q54 0 54 39v24q0 18 -13 29t-37 11q-31 0 -59 -28l-35 26l102 131l35 -27l-60 -74q17 11 47 11q44 0 68.5 -26.5t24.5 -67.5z" />
    <glyph glyph-name="ordmasculine" unicode="&#xba;" horiz-adv-x="383" 
d="M343 451q0 -63 -43 -102t-109 -39q-65 0 -108 39t-43 102v86q0 64 43 102.5t108 38.5q66 0 109 -38.5t43 -102.5v-86zM262 447v93q0 34 -19 52.5t-52 18.5t-51.5 -18.5t-18.5 -52.5v-93q0 -70 70 -70q33 0 52 18.5t19 51.5z" />
    <glyph glyph-name="guillemotright" unicode="&#xbb;" horiz-adv-x="507" 
d="M474 163q-58 -14 -102 -61.5t-59 -101.5h-57q0 58 32 113.5t86 85.5q-54 30 -86 86t-32 114h57q15 -54 59 -101.5t102 -61.5v-73zM264 163q-58 -14 -102 -61.5t-59 -101.5h-57q0 58 32 113.5t86 85.5q-54 30 -86 86t-32 114h57q15 -54 59 -101.5t102 -61.5v-73z" />
    <glyph glyph-name="questiondown" unicode="&#xbf;" horiz-adv-x="411" 
d="M197 -127q50 0 79 30.5t29 83.5v15h101v-31q0 -79 -58.5 -133.5t-152.5 -54.5q-104 0 -159 51.5t-55 128.5q0 46 20.5 81.5t49.5 58t58.5 43t50 47.5t20.5 61h84q0 -38 -13 -69.5t-32.5 -50.5t-42.5 -38.5l-42.5 -35.5t-32.5 -40t-13 -53q0 -94 109 -94zM175 468h99v-116
h-99v116z" />
    <glyph glyph-name="Agrave" unicode="&#xc0;" horiz-adv-x="575" 
d="M566 0h-114l-54 170h-226l-52 -170h-111l222 666h110zM369 259l-86 267l-83 -267h169zM313 714h-63l-93 145h109z" />
    <glyph glyph-name="Aacute" unicode="&#xc1;" horiz-adv-x="575" 
d="M566 0h-114l-54 170h-226l-52 -170h-111l222 666h110zM369 259l-86 267l-83 -267h169zM406 859l-92 -145h-63l48 145h107z" />
    <glyph glyph-name="Acircumflex" unicode="&#xc2;" horiz-adv-x="575" 
d="M566 0h-114l-54 170h-226l-52 -170h-111l222 666h110zM369 259l-86 267l-83 -267h169zM439 723q-26 -8 -52 -8q-37 0 -65.5 25t-39.5 65q-11 -40 -40 -65t-67 -25q-21 0 -45 8v29q76 0 106 101h96q30 -101 107 -101v-29z" />
    <glyph glyph-name="Atilde" unicode="&#xc3;" horiz-adv-x="575" 
d="M566 0h-114l-54 170h-226l-52 -170h-111l222 666h110zM369 259l-86 267l-83 -267h169zM441 811q0 -39 -22 -62t-64 -23q-32 0 -85.5 30.5t-66.5 30.5q-22 0 -22 -28v-34h-48q-15 22 -15 45q0 39 21.5 62t63.5 23q32 0 86 -30.5t67 -30.5q23 0 23 28v34h48q14 -23 14 -45z
" />
    <glyph glyph-name="Adieresis" unicode="&#xc4;" horiz-adv-x="575" 
d="M566 0h-114l-54 170h-226l-52 -170h-111l222 666h110zM369 259l-86 267l-83 -267h169zM404 739h-92v93h92v-93zM241 739h-92v93h92v-93z" />
    <glyph glyph-name="Aring" unicode="&#xc5;" horiz-adv-x="574" 
d="M369 259l-86 267l-83 -267h169zM334 756q0 24 -12.5 37.5t-35.5 13.5t-35.5 -13.5t-12.5 -37.5q0 -22 12.5 -36t35.5 -14t35.5 14t12.5 36zM253 666q-31 10 -49.5 35t-18.5 55q0 39 28.5 67.5t72.5 28.5t72 -28.5t28 -67.5q0 -30 -18.5 -55t-48.5 -35h22l225 -666h-114
l-54 170h-226l-52 -170h-111l222 666h22z" />
    <glyph glyph-name="AE" unicode="&#xc6;" horiz-adv-x="853" 
d="M814 0h-421v170h-188l-89 -170h-112l359 666h451v-98h-311v-174h230v-92h-230v-204h311v-98zM393 260v273l-140 -273h140z" />
    <glyph glyph-name="Ccedilla" unicode="&#xc7;" horiz-adv-x="591" 
d="M271 -17q-105 13 -161.5 82t-56.5 166v202q0 107 69 179.5t194 72.5q107 0 172 -58.5t65 -145.5v-46h-109v37q0 55 -33.5 85.5t-94.5 30.5q-74 0 -113 -40.5t-39 -107.5v-216q0 -65 40 -105.5t114 -40.5q60 0 92 31t32 86v37h109v-46q0 -85 -61 -143t-165 -62l-47 -58
q16 11 47 11q44 0 68.5 -26.5t24.5 -67.5q0 -42 -29.5 -68.5t-79.5 -26.5q-29 0 -51 11v36h33q54 0 54 39v24q0 18 -13 29t-37 11q-31 0 -59 -28l-35 26z" />
    <glyph glyph-name="Egrave" unicode="&#xc8;" horiz-adv-x="532" 
d="M492 0h-421v666h421v-98h-311v-174h230v-92h-230v-204h311v-98zM327 714h-63l-93 145h109z" />
    <glyph glyph-name="Eacute" unicode="&#xc9;" horiz-adv-x="532" 
d="M492 0h-421v666h421v-98h-311v-174h230v-92h-230v-204h311v-98zM391 859l-92 -145h-63l48 145h107z" />
    <glyph glyph-name="Ecircumflex" unicode="&#xca;" horiz-adv-x="532" 
d="M492 0h-421v666h421v-98h-311v-174h230v-92h-230v-204h311v-98zM433 724q-26 -8 -52 -8q-37 0 -65.5 25t-39.5 65q-11 -40 -40 -65t-67 -25q-21 0 -45 8v29q76 0 106 101h96q30 -101 107 -101v-29z" />
    <glyph glyph-name="Edieresis" unicode="&#xcb;" horiz-adv-x="532" 
d="M492 0h-421v666h421v-98h-311v-174h230v-92h-230v-204h311v-98zM405 739h-92v93h92v-93zM242 739h-92v93h92v-93z" />
    <glyph glyph-name="Igrave" unicode="&#xcc;" horiz-adv-x="252" 
d="M181 0h-110v666h110v-666zM156 714h-63l-93 145h109z" />
    <glyph glyph-name="Iacute" unicode="&#xcd;" horiz-adv-x="252" 
d="M181 0h-110v666h110v-666zM242 859l-92 -145h-63l48 145h107z" />
    <glyph glyph-name="Icircumflex" unicode="&#xce;" horiz-adv-x="252" 
d="M181 0h-110v666h110v-666zM280 723q-26 -8 -52 -8q-37 0 -65.5 25t-39.5 65q-11 -40 -40 -65t-67 -25q-21 0 -45 8v29q76 0 106 101h96q30 -101 107 -101v-29z" />
    <glyph glyph-name="Idieresis" unicode="&#xcf;" horiz-adv-x="252" 
d="M181 0h-110v666h110v-666zM251 739h-92v93h92v-93zM88 739h-92v93h92v-93z" />
    <glyph glyph-name="Eth" unicode="&#xd0;" horiz-adv-x="677" 
d="M124 290h-105v89h105v287h248q120 0 185.5 -64.5t65.5 -163.5v-210q0 -99 -65.5 -163.5t-185.5 -64.5h-248v290zM234 379h124v-89h-124v-192h131q72 0 110 37t38 101v193q0 65 -38 102t-110 37h-131v-189z" />
    <glyph glyph-name="Ntilde" unicode="&#xd1;" horiz-adv-x="643" 
d="M572 0h-82l-252 362l-61 95v-457h-106v666h91l245 -367l59 -94v461h106v-666zM479 811q0 -39 -22 -62t-64 -23q-32 0 -85.5 30.5t-66.5 30.5q-22 0 -22 -28v-34h-48q-15 22 -15 45q0 39 21.5 62t63.5 23q32 0 86 -30.5t67 -30.5q23 0 23 28v34h48q14 -23 14 -45z" />
    <glyph glyph-name="Ograve" unicode="&#xd2;" 
d="M570 230q0 -107 -67.5 -178t-190.5 -71t-191 71t-68 178v206q0 108 68 178.5t191 70.5t190.5 -70.5t67.5 -178.5v-206zM459 226v214q0 66 -38 107t-109 41t-109 -41t-38 -107v-214q0 -65 38 -106.5t109 -41.5t109 41.5t38 106.5zM343 718h-63l-93 145h109z" />
    <glyph glyph-name="Oacute" unicode="&#xd3;" 
d="M570 230q0 -107 -67.5 -178t-190.5 -71t-191 71t-68 178v206q0 108 68 178.5t191 70.5t190.5 -70.5t67.5 -178.5v-206zM459 226v214q0 66 -38 107t-109 41t-109 -41t-38 -107v-214q0 -65 38 -106.5t109 -41.5t109 41.5t38 106.5zM431 863l-92 -145h-63l48 145h107z" />
    <glyph glyph-name="Ocircumflex" unicode="&#xd4;" 
d="M570 230q0 -107 -67.5 -178t-190.5 -71t-191 71t-68 178v206q0 108 68 178.5t191 70.5t190.5 -70.5t67.5 -178.5v-206zM459 226v214q0 66 -38 107t-109 41t-109 -41t-38 -107v-214q0 -65 38 -106.5t109 -41.5t109 41.5t38 106.5zM467 725q-26 -8 -52 -8q-37 0 -65.5 25
t-39.5 65q-11 -40 -40 -65t-67 -25q-21 0 -45 8v29q76 0 106 101h96q30 -101 107 -101v-29z" />
    <glyph glyph-name="Otilde" unicode="&#xd5;" 
d="M570 230q0 -107 -67.5 -178t-190.5 -71t-191 71t-68 178v206q0 108 68 178.5t191 70.5t190.5 -70.5t67.5 -178.5v-206zM459 226v214q0 66 -38 107t-109 41t-109 -41t-38 -107v-214q0 -65 38 -106.5t109 -41.5t109 41.5t38 106.5zM467 813q0 -39 -22 -62t-64 -23
q-32 0 -85.5 30.5t-66.5 30.5q-22 0 -22 -28v-34h-48q-15 22 -15 45q0 39 21.5 62t63.5 23q32 0 86 -30.5t67 -30.5q23 0 23 28v34h48q14 -23 14 -45z" />
    <glyph glyph-name="Odieresis" unicode="&#xd6;" 
d="M570 230q0 -107 -67.5 -178t-190.5 -71t-191 71t-68 178v206q0 108 68 178.5t191 70.5t190.5 -70.5t67.5 -178.5v-206zM459 226v214q0 66 -38 107t-109 41t-109 -41t-38 -107v-214q0 -65 38 -106.5t109 -41.5t109 41.5t38 106.5zM440 742h-92v93h92v-93zM277 742h-92v93
h92v-93z" />
    <glyph glyph-name="multiply" unicode="&#xd7;" horiz-adv-x="438" 
d="M385 233l-62 -61l-105 106l-104 -106l-61 60l106 104l-106 106l62 60l105 -105l104 105l61 -59l-106 -105z" />
    <glyph glyph-name="Oslash" unicode="&#xd8;" 
d="M91 90q-38 61 -38 140v206q0 108 68 178.5t191 70.5q108 0 175 -56l51 69l52 -43l-58 -78q38 -61 38 -141v-206q0 -107 -67.5 -178t-190.5 -71q-108 0 -175 56l-51 -69l-53 43zM168 194l256 349q-39 45 -112 45q-71 0 -109 -41t-38 -107v-214q0 -17 3 -32zM456 472
l-64 -87l-128 -175l-64 -87q39 -45 112 -45q71 0 109 41.5t38 106.5v214q0 17 -3 32z" />
    <glyph glyph-name="Ugrave" unicode="&#xd9;" horiz-adv-x="634" 
d="M567 202q0 -101 -67 -161t-184 -60q-116 0 -182.5 59.5t-66.5 161.5v464h112v-458q0 -63 35 -97.5t104 -34.5q138 0 138 132v458h111v-464zM359 712h-63l-93 145h109z" />
    <glyph glyph-name="Uacute" unicode="&#xda;" horiz-adv-x="634" 
d="M567 202q0 -101 -67 -161t-184 -60q-116 0 -182.5 59.5t-66.5 161.5v464h112v-458q0 -63 35 -97.5t104 -34.5q138 0 138 132v458h111v-464zM436 857l-92 -145h-63l48 145h107z" />
    <glyph glyph-name="Ucircumflex" unicode="&#xdb;" horiz-adv-x="634" 
d="M567 202q0 -101 -67 -161t-184 -60q-116 0 -182.5 59.5t-66.5 161.5v464h112v-458q0 -63 35 -97.5t104 -34.5q138 0 138 132v458h111v-464zM478 723q-26 -8 -52 -8q-37 0 -65.5 25t-39.5 65q-11 -40 -40 -65t-67 -25q-21 0 -45 8v29q76 0 106 101h96q30 -101 107 -101
v-29z" />
    <glyph glyph-name="Udieresis" unicode="&#xdc;" horiz-adv-x="634" 
d="M567 202q0 -101 -67 -161t-184 -60q-116 0 -182.5 59.5t-66.5 161.5v464h112v-458q0 -63 35 -97.5t104 -34.5q138 0 138 132v458h111v-464zM448 737h-92v93h92v-93zM285 737h-92v93h92v-93z" />
    <glyph glyph-name="Yacute" unicode="&#xdd;" horiz-adv-x="555" 
d="M558 666l-222 -397v-269h-111v269l-226 397h124l161 -306l157 306h117zM405 857l-92 -145h-63l48 145h107z" />
    <glyph glyph-name="Thorn" unicode="&#xde;" horiz-adv-x="572" 
d="M537 321q0 -83 -50.5 -131t-156.5 -48h-149v-142h-110v666h110v-115h149q106 0 156.5 -47.5t50.5 -130.5v-52zM425 319v54q0 86 -90 86h-154v-225h156q88 0 88 85z" />
    <glyph glyph-name="germandbls" unicode="&#xdf;" horiz-adv-x="506" 
d="M459 147q0 -72 -45 -113.5t-120 -41.5q-40 0 -58 13v42q66 0 93.5 23t27.5 67v104q0 75 -118 78v58q104 4 104 80v48q0 40 -22 62.5t-63 22.5q-44 0 -66.5 -27t-22.5 -76v-487h-102v473q0 89 48.5 142.5t140.5 53.5t140 -46.5t48 -114.5v-24q0 -98 -83 -127
q98 -28 98 -131v-79z" />
    <glyph glyph-name="agrave" unicode="&#xe0;" horiz-adv-x="488" 
d="M462 -8h-34q-36 0 -58 17t-21 56q-59 -73 -159 -73q-68 0 -109.5 35.5t-41.5 95.5v5q0 43 23.5 74t64.5 46.5t90.5 21.5t107.5 2v47q0 79 -82 79q-92 0 -92 -70v-2h-89v5q0 63 47 105t131 42q93 0 137 -47.5t44 -129.5v-204q0 -17 9 -24.5t32 -7.5v-73zM325 152v59
q-189 12 -189 -80v-3q0 -25 19.5 -42t52.5 -17q44 0 80.5 24t36.5 59zM272 548h-63l-93 145h109z" />
    <glyph glyph-name="aacute" unicode="&#xe1;" horiz-adv-x="488" 
d="M462 -8h-34q-36 0 -58 17t-21 56q-59 -73 -159 -73q-68 0 -109.5 35.5t-41.5 95.5v5q0 43 23.5 74t64.5 46.5t90.5 21.5t107.5 2v47q0 79 -82 79q-92 0 -92 -70v-2h-89v5q0 63 47 105t131 42q93 0 137 -47.5t44 -129.5v-204q0 -17 9 -24.5t32 -7.5v-73zM325 152v59
q-189 12 -189 -80v-3q0 -25 19.5 -42t52.5 -17q44 0 80.5 24t36.5 59zM356 693l-92 -145h-63l48 145h107z" />
    <glyph glyph-name="acircumflex" unicode="&#xe2;" horiz-adv-x="488" 
d="M462 -8h-34q-36 0 -58 17t-21 56q-59 -73 -159 -73q-68 0 -109.5 35.5t-41.5 95.5v5q0 43 23.5 74t64.5 46.5t90.5 21.5t107.5 2v47q0 79 -82 79q-92 0 -92 -70v-2h-89v5q0 63 47 105t131 42q93 0 137 -47.5t44 -129.5v-204q0 -17 9 -24.5t32 -7.5v-73zM325 152v59
q-189 12 -189 -80v-3q0 -25 19.5 -42t52.5 -17q44 0 80.5 24t36.5 59zM399 559q-26 -8 -52 -8q-37 0 -65.5 25t-39.5 65q-11 -40 -40 -65t-67 -25q-21 0 -45 8v29q76 0 106 101h96q30 -101 107 -101v-29z" />
    <glyph glyph-name="atilde" unicode="&#xe3;" horiz-adv-x="488" 
d="M462 -8h-34q-36 0 -58 17t-21 56q-59 -73 -159 -73q-68 0 -109.5 35.5t-41.5 95.5v5q0 43 23.5 74t64.5 46.5t90.5 21.5t107.5 2v47q0 79 -82 79q-92 0 -92 -70v-2h-89v5q0 63 47 105t131 42q93 0 137 -47.5t44 -129.5v-204q0 -17 9 -24.5t32 -7.5v-73zM325 152v59
q-189 12 -189 -80v-3q0 -25 19.5 -42t52.5 -17q44 0 80.5 24t36.5 59zM396 647q0 -39 -22 -62t-64 -23q-32 0 -85.5 30.5t-66.5 30.5q-22 0 -22 -28v-34h-48q-15 22 -15 45q0 39 21.5 62t63.5 23q32 0 86 -30.5t67 -30.5q23 0 23 28v34h48q14 -23 14 -45z" />
    <glyph glyph-name="adieresis" unicode="&#xe4;" horiz-adv-x="488" 
d="M462 -8h-34q-36 0 -58 17t-21 56q-59 -73 -159 -73q-68 0 -109.5 35.5t-41.5 95.5v5q0 43 23.5 74t64.5 46.5t90.5 21.5t107.5 2v47q0 79 -82 79q-92 0 -92 -70v-2h-89v5q0 63 47 105t131 42q93 0 137 -47.5t44 -129.5v-204q0 -17 9 -24.5t32 -7.5v-73zM325 152v59
q-189 12 -189 -80v-3q0 -25 19.5 -42t52.5 -17q44 0 80.5 24t36.5 59zM363 573h-92v93h92v-93zM200 573h-92v93h92v-93z" />
    <glyph glyph-name="aring" unicode="&#xe5;" horiz-adv-x="488" 
 />
    <glyph glyph-name="ae" unicode="&#xe6;" horiz-adv-x="753" 
d="M360 73q-30 -39 -75 -60t-94 -21q-68 0 -110 35t-42 95v5q0 57 42 92.5t103.5 46.5t140.5 6v47q0 36 -21.5 57.5t-60.5 21.5q-92 0 -92 -70v-2h-89v5q0 63 47 105t131 42q96 0 137 -70q50 71 151 71q83 0 133 -53.5t50 -139.5v-58h-290v-63q0 -43 28.5 -69t78.5 -26
q44 0 69 21.5t25 53.5v10h89v-2q0 -74 -54 -117.5t-135 -43.5q-113 0 -162 81zM619 281v30q0 38 -27 64t-72 26t-71.5 -25.5t-26.5 -64.5v-30h197zM325 152v60q-188 9 -188 -82v-3q0 -25 19.5 -42t52.5 -17q44 0 80 24t36 60z" />
    <glyph glyph-name="ccedilla" unicode="&#xe7;" horiz-adv-x="469" 
d="M203 -4q-72 12 -113.5 62t-41.5 125v101q0 87 55.5 140.5t144.5 53.5q83 0 133.5 -45t50.5 -126v-3h-89v12q0 37 -26 60t-68 23q-47 0 -75 -28.5t-28 -78.5v-113q0 -52 28 -80t75 -28q40 0 67 23t27 61v12h89v-4q0 -79 -49 -124t-127 -47l-56 -69q17 11 47 11
q44 0 68.5 -26.5t24.5 -67.5q0 -42 -29.5 -68.5t-79.5 -26.5q-29 0 -51 11v36h33q54 0 54 39v24q0 18 -13 29t-37 11q-31 0 -59 -28l-35 26z" />
    <glyph glyph-name="egrave" unicode="&#xe8;" horiz-adv-x="476" 
d="M435 153q0 -74 -54 -117.5t-135 -43.5q-90 0 -144 51t-54 137v107q0 85 52.5 138t143.5 53t141 -52.5t50 -139.5v-58h-289v-64q0 -42 28.5 -68t77.5 -26q44 0 69 21.5t25 53.5v10h89v-2zM343 280v30q0 39 -26.5 64.5t-71.5 25.5q-46 0 -72.5 -25t-26.5 -65v-30h197z
M275 548h-63l-93 145h109z" />
    <glyph glyph-name="eacute" unicode="&#xe9;" horiz-adv-x="476" 
d="M435 153q0 -74 -54 -117.5t-135 -43.5q-90 0 -144 51t-54 137v107q0 85 52.5 138t143.5 53t141 -52.5t50 -139.5v-58h-289v-64q0 -42 28.5 -68t77.5 -26q44 0 69 21.5t25 53.5v10h89v-2zM343 280v30q0 39 -26.5 64.5t-71.5 25.5q-46 0 -72.5 -25t-26.5 -65v-30h197z
M366 693l-92 -145h-63l48 145h107z" />
    <glyph glyph-name="ecircumflex" unicode="&#xea;" horiz-adv-x="476" 
d="M435 153q0 -74 -54 -117.5t-135 -43.5q-90 0 -144 51t-54 137v107q0 85 52.5 138t143.5 53t141 -52.5t50 -139.5v-58h-289v-64q0 -42 28.5 -68t77.5 -26q44 0 69 21.5t25 53.5v10h89v-2zM343 280v30q0 39 -26.5 64.5t-71.5 25.5q-46 0 -72.5 -25t-26.5 -65v-30h197z
M394 559q-26 -8 -52 -8q-37 0 -65.5 25t-39.5 65q-11 -40 -40 -65t-67 -25q-21 0 -45 8v29q76 0 106 101h96q30 -101 107 -101v-29z" />
    <glyph glyph-name="edieresis" unicode="&#xeb;" horiz-adv-x="476" 
d="M435 153q0 -74 -54 -117.5t-135 -43.5q-90 0 -144 51t-54 137v107q0 85 52.5 138t143.5 53t141 -52.5t50 -139.5v-58h-289v-64q0 -42 28.5 -68t77.5 -26q44 0 69 21.5t25 53.5v10h89v-2zM343 280v30q0 39 -26.5 64.5t-71.5 25.5q-46 0 -72.5 -25t-26.5 -65v-30h197z
M368 573h-92v93h92v-93zM205 573h-92v93h92v-93z" />
    <glyph glyph-name="igrave" unicode="&#xec;" horiz-adv-x="230" 
 />
    <glyph glyph-name="iacute" unicode="&#xed;" horiz-adv-x="230" 
 />
    <glyph glyph-name="icircumflex" unicode="&#xee;" horiz-adv-x="230" 
 />
    <glyph glyph-name="idieresis" unicode="&#xef;" horiz-adv-x="230" 
 />
    <glyph glyph-name="eth" unicode="&#xf0;" horiz-adv-x="495" 
d="M334 618l67 28l18 -47l-47 -20q77 -90 77 -215v-171q0 -94 -55 -147.5t-146 -53.5q-86 0 -143.5 50.5t-57.5 134.5v126q0 73 50 121t122 48q79 0 128 -58q-4 68 -58 130l-76 -31l-18 48l56 23q-41 38 -110 79v3h127q32 -19 66 -48zM147 166q0 -42 27.5 -69t73.5 -27
q45 0 73 27t28 69v122q0 49 -26.5 78t-74.5 29q-101 0 -101 -108v-121z" />
    <glyph glyph-name="ntilde" unicode="&#xf1;" horiz-adv-x="522" 
d="M462 0h-102v316q0 41 -20.5 63.5t-57.5 22.5q-47 0 -81.5 -49.5t-34.5 -95.5v-257h-102v468h86l5 -121q56 131 162 131q69 0 107 -43t38 -114v-321zM414 647q0 -39 -22 -62t-64 -23q-32 0 -85.5 30.5t-66.5 30.5q-22 0 -22 -28v-34h-48q-15 22 -15 45q0 39 21.5 62
t63.5 23q32 0 86 -30.5t67 -30.5q23 0 23 28v34h48q14 -23 14 -45z" />
    <glyph glyph-name="ograve" unicode="&#xf2;" horiz-adv-x="495" 
d="M447 183q0 -89 -55 -140t-144 -51q-90 0 -145 51t-55 140v102q0 89 55 141t145 52q89 0 144 -52t55 -141v-102zM348 174v122q0 48 -26.5 76t-73.5 28q-48 0 -74.5 -28t-26.5 -76v-122q0 -49 26.5 -76.5t74.5 -27.5t74 28t26 76zM275 548h-63l-93 145h109z" />
    <glyph glyph-name="oacute" unicode="&#xf3;" horiz-adv-x="495" 
d="M447 183q0 -89 -55 -140t-144 -51q-90 0 -145 51t-55 140v102q0 89 55 141t145 52q89 0 144 -52t55 -141v-102zM348 174v122q0 48 -26.5 76t-73.5 28q-48 0 -74.5 -28t-26.5 -76v-122q0 -49 26.5 -76.5t74.5 -27.5t74 28t26 76zM369 693l-92 -145h-63l48 145h107z" />
    <glyph glyph-name="ocircumflex" unicode="&#xf4;" horiz-adv-x="495" 
d="M447 183q0 -89 -55 -140t-144 -51q-90 0 -145 51t-55 140v102q0 89 55 141t145 52q89 0 144 -52t55 -141v-102zM348 174v122q0 48 -26.5 76t-73.5 28q-48 0 -74.5 -28t-26.5 -76v-122q0 -49 26.5 -76.5t74.5 -27.5t74 28t26 76zM405 559q-26 -8 -52 -8q-37 0 -65.5 25
t-39.5 65q-11 -40 -40 -65t-67 -25q-21 0 -45 8v29q76 0 106 101h96q30 -101 107 -101v-29z" />
    <glyph glyph-name="otilde" unicode="&#xf5;" horiz-adv-x="495" 
d="M447 183q0 -89 -55 -140t-144 -51q-90 0 -145 51t-55 140v102q0 89 55 141t145 52q89 0 144 -52t55 -141v-102zM348 174v122q0 48 -26.5 76t-73.5 28q-48 0 -74.5 -28t-26.5 -76v-122q0 -49 26.5 -76.5t74.5 -27.5t74 28t26 76zM402 647q0 -39 -22 -62t-64 -23
q-32 0 -85.5 30.5t-66.5 30.5q-22 0 -22 -28v-34h-48q-15 22 -15 45q0 39 21.5 62t63.5 23q32 0 86 -30.5t67 -30.5q23 0 23 28v34h48q14 -23 14 -45z" />
    <glyph glyph-name="odieresis" unicode="&#xf6;" horiz-adv-x="495" 
d="M447 183q0 -89 -55 -140t-144 -51q-90 0 -145 51t-55 140v102q0 89 55 141t145 52q89 0 144 -52t55 -141v-102zM348 174v122q0 48 -26.5 76t-73.5 28q-48 0 -74.5 -28t-26.5 -76v-122q0 -49 26.5 -76.5t74.5 -27.5t74 28t26 76zM376 573h-92v93h92v-93zM213 573h-92v93
h92v-93z" />
    <glyph glyph-name="oslash" unicode="&#xf8;" horiz-adv-x="495" 
d="M84 65q-36 47 -36 118v102q0 89 55 141t145 52q77 0 128 -39l47 60l39 -32l-50 -64q35 -49 35 -118v-102q0 -89 -55 -140t-144 -51q-77 0 -129 38l-46 -59l-38 31zM149 148l174 223q-27 29 -75 29t-74.5 -28t-26.5 -76v-122q0 -8 2 -26zM346 319l-43 -55l-87 -110
l-43 -56q26 -28 75 -28q48 0 74 28t26 76v122q0 9 -2 23z" />
    <glyph glyph-name="ugrave" unicode="&#xf9;" horiz-adv-x="521" 
d="M461 0h-86l-5 107q-50 -115 -158 -115q-72 0 -110.5 42t-38.5 114v320h102v-314q0 -41 21.5 -63.5t59.5 -22.5q46 0 79.5 47t33.5 93v260h102v-468zM298 548h-63l-93 145h109z" />
    <glyph glyph-name="uacute" unicode="&#xfa;" horiz-adv-x="521" 
d="M461 0h-86l-5 107q-50 -115 -158 -115q-72 0 -110.5 42t-38.5 114v320h102v-314q0 -41 21.5 -63.5t59.5 -22.5q46 0 79.5 47t33.5 93v260h102v-468zM382 693l-92 -145h-63l48 145h107z" />
    <glyph glyph-name="ucircumflex" unicode="&#xfb;" horiz-adv-x="521" 
d="M461 0h-86l-5 107q-50 -115 -158 -115q-72 0 -110.5 42t-38.5 114v320h102v-314q0 -41 21.5 -63.5t59.5 -22.5q46 0 79.5 47t33.5 93v260h102v-468zM416 559q-26 -8 -52 -8q-37 0 -65.5 25t-39.5 65q-11 -40 -40 -65t-67 -25q-21 0 -45 8v29q76 0 106 101h96
q30 -101 107 -101v-29z" />
    <glyph glyph-name="udieresis" unicode="&#xfc;" horiz-adv-x="521" 
d="M461 0h-86l-5 107q-50 -115 -158 -115q-72 0 -110.5 42t-38.5 114v320h102v-314q0 -41 21.5 -63.5t59.5 -22.5q46 0 79.5 47t33.5 93v260h102v-468zM390 573h-92v93h92v-93zM227 573h-92v93h92v-93z" />
    <glyph glyph-name="yacute" unicode="&#xfd;" horiz-adv-x="453" 
d="M442 468l-162 -461q-19 -48 -32 -73t-34 -49t-48.5 -33t-68.5 -9h-41v73h34q38 0 54.5 12t27.5 41l8 24l-170 475h103l80 -252l34 -110l33 110l79 252h103zM346 693l-92 -145h-63l48 145h107z" />
    <glyph glyph-name="thorn" unicode="&#xfe;" horiz-adv-x="511" 
d="M464 161q0 -71 -46 -120.5t-110 -49.5q-49 0 -82 15t-62 49v-209h-100v820h100v-257q29 36 63 52.5t84 16.5q65 0 109 -49t44 -120v-148zM365 182v105q0 112 -98 112q-46 0 -74 -29.5t-28 -80.5v-112q0 -50 29 -78.5t73 -28.5q47 0 72.5 28.5t25.5 83.5z" />
    <glyph glyph-name="ydieresis" unicode="&#xff;" horiz-adv-x="453" 
d="M442 468l-162 -461q-19 -48 -32 -73t-34 -49t-48.5 -33t-68.5 -9h-41v73h34q38 0 54.5 12t27.5 41l8 24l-170 475h103l80 -252l34 -110l33 110l79 252h103zM355 573h-92v93h92v-93zM192 573h-92v93h92v-93z" />
    <glyph glyph-name="NUL" horiz-adv-x="1000" 
 />
    <glyph glyph-name="Lslash" horiz-adv-x="561" 
d="M224 304v-207h317v-97h-428v255l-81 -35l-25 62l106 46v338h111v-289l112 50l25 -63z" />
    <glyph glyph-name="lslash" horiz-adv-x="291" 
d="M300 406l-104 -80v-326h-101v248l-65 -49l-37 52l102 78v337h101v-259l67 51z" />
    <glyph glyph-name="notequal" horiz-adv-x="502" 
d="M474 0h-446v468h446v-468z" />
    <glyph glyph-name="lessequal" horiz-adv-x="448" 
d="M367 96l-316 143v13l316 143v-299z" />
    <glyph glyph-name="greaterequal" horiz-adv-x="448" 
d="M397 239l-316 -143v299l316 -143v-13z" />
    <glyph glyph-name="product" horiz-adv-x="580" 
d="M430 0l-154 273h-95v-273h-111v666h262q204 0 204 -174v-43q0 -65 -37 -109t-110 -60l41 -70l82 -140l41 -70h-123zM181 361h144q100 0 100 88v45q0 79 -90 79h-154v-212z" />
    <glyph glyph-name="pi" horiz-adv-x="773" 
d="M738 333q0 -147 -100.5 -249.5t-251.5 -102.5q-149 0 -250 102.5t-101 249.5t101 249.5t250 102.5q151 0 251.5 -102.5t100.5 -249.5zM683 333q0 127 -83.5 214.5t-213.5 87.5q-129 0 -212 -87.5t-83 -214.5t83 -214.5t212 -87.5q130 0 213.5 87.5t83.5 214.5zM525 381
q0 -39 -26 -62.5t-78 -23.5h-68v-117h-65v313h133q104 0 104 -84v-26zM460 380v26q0 35 -44 35h-63v-98h63q44 0 44 37z" />
    <glyph glyph-name="Omega" horiz-adv-x="618" 
d="M602 387h-91v-387h-102v387h-73v77h73v31q0 81 40.5 127.5t119.5 46.5h40v-79h-29q-73 0 -73 -83v-43h95v-77zM293 387h-91v-387h-102v387h-73v77h73v31q0 81 40.5 127.5t119.5 46.5h40v-79h-29q-73 0 -73 -83v-43h95v-77z" />
    <glyph glyph-name="radical" horiz-adv-x="846" 
d="M602 387h-91v-387h-102v387h-73v77h73v31q0 81 40.5 127.5t119.5 46.5h40v-79h-29q-73 0 -73 -83v-43h95v-77zM293 387h-91v-387h-102v387h-73v77h73v31q0 81 40.5 127.5t119.5 46.5h40v-79h-29q-73 0 -73 -83v-43h95v-77zM783 0h-101v666h101v-666z" />
    <glyph glyph-name="approxequal" horiz-adv-x="848" 
d="M602 387h-91v-387h-102v387h-73v77h73v31q0 81 40.5 127.5t119.5 46.5h40v-79h-29q-73 0 -73 -83v-43h95v-77zM293 387h-91v-387h-102v387h-73v77h73v31q0 81 40.5 127.5t119.5 46.5h40v-79h-29q-73 0 -73 -83v-43h95v-77zM781 549h-96v95h96v-95zM784 0h-102v468h102
v-468z" />
    <glyph glyph-name="fraction" horiz-adv-x="144" 
d="M353 703l-506 -797l-56 39l507 797z" />
    <glyph glyph-name="fi" horiz-adv-x="539" 
d="M293 387h-91v-387h-102v387h-73v77h73v31q0 81 40.5 127.5t119.5 46.5h40v-79h-29q-73 0 -73 -83v-43h95v-77zM472 549h-96v95h96v-95zM475 0h-102v468h102v-468z" />
    <glyph glyph-name="fl" horiz-adv-x="537" 
d="M293 387h-91v-387h-102v387h-73v77h73v31q0 81 40.5 127.5t119.5 46.5h40v-79h-29q-73 0 -73 -83v-43h95v-77zM474 0h-101v666h101v-666z" />
    <glyph glyph-name="apple" horiz-adv-x="967" 
d="M868 0h-767v750h767v-750zM859 -104h-6l-3 20l-10 -21h-2l-10 21l-3 -20h-6l6 34h1l13 -26l13 26h1zM806 -87q0 -18 -17 -18q-7 0 -12 5t-5 12q0 18 18 18q7 0 11.5 -5t4.5 -12zM758 -96l-1 -6q-3 -3 -10 -3q-18 0 -18 17q0 8 5.5 13t12.5 5t11 -3l-2 -5q-3 3 -9 3
q-12 0 -12 -12q0 -13 13 -13q4 0 10 4zM702 -71l-13 -19v-14h-6v14l-14 19l6 1l11 -15l9 14h7zM656 -104h-6v15h-16v-15h-6v33h6v-13h16v13h6v-33zM612 -82q0 -12 -17 -12v-10h-6v33q23 3 23 -11zM576 -104h-6l-4 8h-14l-3 -8h-6l15 34h2zM534 -104h-7l-8 11h-5v-11h-6v33
q23 3 23 -10q0 -7 -7 -10zM491 -101q-6 -4 -13 -4q-18 0 -18 17q0 8 5.5 13t13.5 5q6 0 12 -4l-2 -5q-4 4 -11 4q-12 0 -12 -13q0 -12 13 -12q2 0 6 2v7h-9v5h15v-15zM447 -87q0 -18 -17 -18q-7 0 -12 5t-5 12q0 18 18 18q7 0 11.5 -5t4.5 -12zM400 -82q0 -12 -17 -12v-10
h-6v33q23 3 23 -11zM364 -71l-13 -19v-14h-6v14l-14 19l6 1l11 -15l9 14h7zM323 -71v-5h-12v-28h-6v28h-12v5h30zM267 -71l-12 -34h-1l-11 23l-10 -23h-1l-12 34l6 1l7 -23l10 23h1l10 -23l7 22h6zM211 -71l-12 -34h-1l-11 23l-10 -23h-1l-12 34l6 1l7 -23l10 23h1l10 -23
l7 22h6zM155 -71l-12 -34h-1l-11 23l-10 -23h-1l-12 34l6 1l7 -23l10 23h1l10 -23l7 22h6zM716 -101q0 -4 -4 -4t-4 4t4 4t4 -4zM284 -101q0 -4 -4 -4t-4 4t4 4t4 -4zM559 686q0 8 -1 12q-2 -1 -17 -1t-18 1l-1 -12h2q4 9 10 9q3 0 3 -3v-23q-1 -5 -5 -5v-2h17v2l-4 2
q-1 1 -1 3v23q0 3 3 3t5.5 -2.5t3.5 -4.5l1 -2h2zM504 662v2q-6 -1 -6 5v21q0 5 6 5v2h-18v-1v-1l4 -2q1 -1 1 -3v-9h-17v9q1 5 5 5v1v1h-17v-2l4 -2q1 -1 1 -3v-21q-1 -4 -5 -5v-2h17v2q-5 0 -5 5v10h17v-10q-1 -5 -5 -5v-2h18zM439 664l-4 2q-1 1 -1 3v21q1 5 5 5v2h-29
l-2 -10l2 -1q3 8 9 8h4q4 0 4 -3v-10h-4q-5 0 -6 5h-2v-13h2q0 6 6 6h4v-11q0 -3 -4 -3h-4q-3 0 -5.5 2.5t-3.5 4.5l-1 2l-2 -1l2 -11h30v2zM827 618v6h-685v-6h685zM696 540q0 15 -11.5 26.5t-25.5 11.5q-8 0 -15.5 -5.5t-7.5 -16.5q0 -16 11 -27t26 -11q8 0 15.5 5.5
t7.5 16.5zM589 537q0 12 -14 17q5 3 5 9q0 15 -21 15q-13 0 -13 -11q0 -6 5 -6q4 0 4 3q0 2 -1.5 3.5t-1.5 2.5q0 5 7 5q10 0 10 -12q0 -4 -2 -6q-16 2 -16 -6q0 -6 8 -6q6 0 11 5q6 -4 6 -15q0 -14 -12 -14t-12 9q0 3 3 3l1 -1q2 -1 4 -1q4 0 4 5t-7 5q-9 0 -9 -10
q0 -13 16 -13q25 0 25 19zM295 537q0 12 -14 17q5 3 5 9q0 15 -21 15q-13 0 -13 -11q0 -6 5 -6q4 0 4 3q0 2 -1.5 3.5t-1.5 2.5q0 5 7 5q10 0 10 -12q0 -4 -2 -6q-16 2 -16 -6q0 -6 8 -6q6 0 11 5q6 -4 6 -15q0 -14 -12 -14t-12 9q0 3 3 3l1 -1q2 -1 4 -1q4 0 4 5t-7 5
q-9 0 -9 -10q0 -13 16 -13q25 0 25 19zM820 522q-8 -1 -10 8l-7 35q-1 4 1 6t4 2h2l-1 3h-28l1 -3q7 1 9 -8l3 -15h-24l-3 15q-1 4 1 6t4 2h2l-1 3h-29l1 -3q8 1 10 -8l7 -35q1 -4 -1 -6t-4 -2h-2l1 -3h29l-1 3q-8 -1 -10 8l-3 16h24l3 -16q1 -4 -1 -6t-4 -2h-2l1 -3h29z
M498 519l-1 3q-8 -1 -10 8l-7 35q-1 4 1 6t4 2h2l-1 3h-45v-17h4q-1 13 13 13h4q5 0 6 -6l3 -16h-4q-4 0 -7 2t-4 4l-1 3h-3l5 -23h3q-1 11 8 11h4l3 -17q1 -4 -1 -6t-4 -2h-2l1 -3h29zM202 522q-8 -1 -10 8l-7 35q-1 4 1 6t4 2h2l-1 3h-27q-20 0 -20 -15q0 -13 19 -15
l-9 -16q-2 -4 -5.5 -6t-6.5 -2h-2l1 -3h19l12 23q2 3 5 3l3 -15q1 -4 -1 -6t-4 -2h-2l1 -3h29zM400 521q0 8 -13 9q-4 2 -5 14.5t-5.5 23t-18.5 10.5q-5 0 -9 -3.5t-4 -6.5q0 -5 5 -5q4 0 4 6t5 6t7 -8t4.5 -19.5t9.5 -17.5q-8 0 -14 -6.5t-9 -6.5q-5 0 -5 4q0 2 1 3t1 2
q0 5 -5 5t-5 -7q0 -4 5 -8t10 -4q10 0 15 6.5t10 6.5q4 -7 12 -7q4 0 4 3zM827 475v6h-685v-6h685zM827 378v62h-147v-62h36v28h11v-65h-14v-33h81v33h-14v65h11v-28h36zM648 406v34h-81v-34h11l-15 -23l-15 23h10v34h-62v-34h12l37 -46v-19h-14v-33h81v33h-15v20l37 45h14z
M458 308v33h-14v65h14v34h-96q-21 0 -34 -11.5t-13 -28.5q0 -18 13 -29t34 -11h30v-19h-15v-33h81zM283 308v33h-14v65h14v34h-141v-62h41v28h33v-20h-24v-24h24v-21h-33v28h-41v-61h141zM827 271v6h-685v-6h685zM728 192q0 15 -11.5 26.5t-25.5 11.5q-8 0 -15.5 -5.5
t-7.5 -16.5q0 -16 11 -27t26 -11q8 0 15.5 5.5t7.5 16.5zM203 217q-7 13 -18 13q-15 0 -14 -23q-7 23 -21 23q-12 0 -12 -12l3 -1q0 6 8 6q16 0 24 -33q2 -8 0.5 -11.5t-3.5 -3.5h-3l1 -4h28l-1 4q-7 -2 -10 9q-5 17 -5 25q0 13 9 13q5 0 12 -7zM823 171l-1 3q-8 -1 -10 8
l-7 35q-1 4 1 6t4 2h2l-1 3h-45v-17h4q-1 13 13 13h4q5 0 6 -6l3 -16h-4q-4 0 -7 2t-4 4l-1 3h-3l5 -23h3q-1 11 8 11h4l3 -17q1 -4 -1 -6t-4 -2h-2l1 -3h29zM621 225l-1 3h-29l1 -3q8 1 10 -9l5 -21q5 -20 -11 -20q-14 0 -20 22l-4 19q-1 5 1 7t4 2h2v3h-24l1 -3q9 1 11 -9
l4 -19q5 -27 28 -27q24 0 19 24l-5 22q-1 5 1 7t4 2h3zM522 174q-6 0 -9 10l-7 32q-1 4 1 6.5t5 2.5h2l-1 3h-14l-29 -42l-5 30q-1 4 1 6t4 2l2 1l-1 3h-21l1 -3q7 0 9 -9l8 -45l3 -1l30 44l6 -30q1 -5 -0.5 -7.5t-3.5 -2.5h-2l1 -3h21zM414 171l-1 4q-7 -2 -10 9l-8 31
q-3 9 8 10l-1 3h-30q-25 0 -25 -22q0 -15 11 -25t24 -10h32zM306 174q-8 -1 -10 8l-7 35q-1 4 1 6t4 2h2l-1 3h-27q-20 0 -20 -15q0 -13 19 -15l-9 -16q-2 -4 -5.5 -6t-6.5 -2h-2l1 -3h19l12 23q2 3 5 3l3 -15q1 -4 -1 -6t-4 -2h-2l1 -3h29zM827 127v6h-685v-6h685zM694 46
v2q-6 1 -6 5v20l6 6v2h-10l-24 -26v18q0 2 1.5 3.5t2.5 1.5l2 1v2h-15v-2q6 -1 6 -6v-28h3l25 28v-20q-1 -4 -5 -5v-2h14zM633 48l-4 2q-1 1 -1 3v21q1 5 5 5v2h-29l-2 -10l2 -1q3 8 9 8h4q4 0 4 -3v-10h-4q-5 0 -6 5h-2v-13h2q0 6 6 6h4v-11q0 -3 -4 -3h-4q-3 0 -5.5 2.5
t-3.5 4.5l-1 2l-2 -1l2 -11h30v2zM583 81h-15v-2l2 -2q1 -1 0 -3l-9 -19l-5 10l4 8l6 6v2h-26l1 -2q3 0 7 -6l3 -5l-7 -13l-8 18q-2 5 2 6v2h-13v-2q4 -1 6 -6l13 -27h1q1 -1 1 0l8 16l9 -16h1l12 27q1 3 3 4.5t3 1.5h1v2zM480 79v2h-15v-2l2 -1q1 -1 -1 -4l-6 -9l-6 9
q-2 4 3 5v2h-15v-2q5 0 8 -5l8 -12v-8q0 -5 -5 -6v-2h17v2q-5 0 -5 6v8l8 12zM425 64q0 18 -20 18t-20 -18q0 -19 20 -19t20 19zM364 46v2q-5 0 -5 5v20q0 5 5 6v2h-18q-13 0 -13 -9q0 -5 9 -9l-7 -10l-8 -5v-2h11l7 12q3 4 7 4v-9q-1 -4 -5 -5v-2h17zM309 46v2q-6 1 -6 6
v20q0 5 6 5v2h-18v-2q6 0 6 -5v-9q-2 0 -4 2l-8 8q-2 3 1 4v2h-14v-2q5 -1 8 -4l10 -9l-13 -13l-7 -5v-2h17v2l-3 1q-1 1 1 4l8 8q2 2 4 2v-9q0 -3 -1.5 -4.5t-3.5 -1.5h-1v-2h18zM606 -83q0 8 -11 7v-13q11 0 11 6zM525 -82q0 8 -11 6v-12q11 -1 11 6zM394 -83q0 8 -11 7
v-13q11 0 11 6zM564 -92l-5 12l-5 -12h10zM800 -88q0 13 -11 13t-11 -12q0 -13 11 -13t11 12zM441 -88q0 13 -11 13t-11 -12q0 -13 11 -13t11 12zM176 548h-5q-15 0 -15 15q0 9 8 9t9 -5zM566 553q-3 -4 -7 -4t-4 2q0 3 4 3q5 0 7 -1zM272 553q-3 -4 -7 -4t-4 2q0 3 4 3
q5 0 7 -1zM684 535q0 -13 -11 -13q-9 0 -17 11.5t-8 26.5q0 14 11 14q9 0 17 -12t8 -27zM392 384h-11q-13 0 -13 11t13 11h11v-22zM280 200h-5q-15 0 -15 15q0 9 8 9t9 -5zM716 187q0 -13 -11 -13q-9 0 -17 11.5t-8 26.5q0 14 11 14q9 0 17 -12t8 -27zM393 182q0 -7 -4 -7
h-5q-11 0 -18.5 10t-7.5 22q0 17 14 17h6q4 -1 6 -7zM553 79q5 0 0 -9q-5 9 0 9zM352 64h-3q-8 0 -8 8q0 6 7 6q4 0 4 -4v-10zM417 64q0 -17 -12 -17t-12 17q0 16 12 16t12 -16z" />
    <glyph glyph-name="dotlessi" horiz-adv-x="230" 
d="M166 0h-102v468h102v-468z" />
    <glyph glyph-name="breve" horiz-adv-x="311" 
d="M290 641q0 -37 -37.5 -63.5t-97.5 -26.5t-97 26.5t-37 63.5q0 24 11 44h57v-18q0 -55 66 -55q67 0 67 55v18h57q11 -20 11 -44z" />
    <glyph glyph-name="dotaccent" horiz-adv-x="268" 
d="M180 573h-92v93h92v-93z" />
    <glyph glyph-name="ring" horiz-adv-x="237" 
d="M219 642q0 -39 -28.5 -67t-72.5 -28q-43 0 -71.5 28t-28.5 67t28.5 67t71.5 28q44 0 72.5 -28t28.5 -67zM167 642q0 23 -13 37t-36 14q-22 0 -34.5 -14t-12.5 -37q0 -22 12.5 -36.5t34.5 -14.5q23 0 36 14.5t13 36.5z" />
    <glyph glyph-name="hungarumlaut" horiz-adv-x="327" 
d="M327 693l-91 -145h-62l59 145h94zM176 693l-74 -145h-63l44 145h93z" />
    <glyph glyph-name="ogonek" horiz-adv-x="249" 
d="M218 -191q-21 -13 -73 -13q-50 0 -83 27t-33 69q0 46 40.5 84.5t116.5 58.5l10 -12q-96 -58 -96 -116q0 -29 22 -46t63 -17h33v-35z" />
    <glyph glyph-name="caron" horiz-adv-x="354" 
d="M332 655q-77 0 -107 -102h-96q-30 102 -106 102v29q21 7 51 7q38 0 66.5 -25t39.5 -65q10 40 39 65t67 25q24 0 46 -7v-29z" />
    </font>
</defs>
</svg>
